<svg xmlns="http://www.w3.org/2000/svg" width="40" height="40" fill="none" viewBox="0 0 40 40">
  <path fill="#4C4C4C" fill-rule="evenodd" d="M30.476 36.19H3.81V9.524h17.142v-3.81H3.81A3.82 3.82 0 0 0 0 9.524V36.19A3.82 3.82 0 0 0 3.81 40h26.666a3.82 3.82 0 0 0 3.81-3.81V19.049h-3.81V36.19Zm-14.838-6.038-3.733-4.495-5.238 6.724h20.952l-6.743-8.971-5.238 6.742ZM34.286 5.714V0h-3.81v5.714h-5.714c.019.02 0 3.81 0 3.81h5.714v5.695c.02.02 3.81 0 3.81 0V9.524H40v-3.81h-5.714Z" clip-rule="evenodd"/>
</svg>
