<svg xmlns="http://www.w3.org/2000/svg" width="175" height="76" fill="none" viewBox="0 0 175 76">
  <g filter="url(#a)">
    <rect width="166.968" height="67.348" x="4" y="1" fill="#000" rx="25.389" shape-rendering="crispEdges"/>
    <path fill="#000" d="M11.617 3.539h5.078v7.617h-5.078z"/>
    <path fill="#000" d="M9.078 6.078h5.078v7.617H9.078zM6.539 8.617h2.539v7.617H6.539z"/>
    <path fill="#000" d="M4 13.695h7.617v2.539H4zM163.351 3.539h-5.078v7.617h5.078z"/>
    <path fill="#000" d="M165.89 6.078h-5.078v7.617h5.078z"/>
    <path fill="#000" d="M168.429 8.617h-5.078v7.617h5.078z"/>
    <path fill="#000" d="M170.968 13.695h-5.078v2.539h5.078zM11.617 58.193h5.078v7.617h-5.078z"/>
    <path fill="#000" d="M9.078 55.654h5.078v7.617H9.078zm-2.539 5.078h2.539v-7.617H6.539z"/>
    <path fill="#000" d="M4 55.654h7.617v-2.539H4zm159.351 2.539h-5.078v7.617h5.078z"/>
    <path fill="#000" d="M165.89 55.654h-5.078v7.617h5.078zm2.539 5.078h-2.539v-7.617h2.539z"/>
    <path fill="#000" d="M170.968 55.654h-7.617v-2.539h7.617z"/>
    <path fill="#E0E0E0" d="M74.4 36.2c.052.213.08.48.08.8 0 .307-.028.573-.08.8.052.213.08.48.08.8 0 .307-.028.573-.08.8h-.8c.052.213.08.48.08.8 0 .307-.028.573-.08.8h-4.8a3.521 3.521 0 0 1-.08-.8c0-.32.026-.587.08-.8H68a3.521 3.521 0 0 1-.08-.8c0-.32.026-.587.08-.8h1.6c.052.213.08.48.08.8 0 .307-.028.573-.08.8h3.2a3.521 3.521 0 0 1-.08-.8c0-.32.026-.587.08-.8a3.521 3.521 0 0 1-.08-.8c0-.32.026-.587.08-.8h-4a3.521 3.521 0 0 1-.08-.8c0-.32.026-.587.08-.8H68a3.521 3.521 0 0 1-.08-.8c0-.32.026-.587.08-.8a3.521 3.521 0 0 1-.08-.8c0-.32.026-.587.08-.8h.8a3.521 3.521 0 0 1-.08-.8c0-.32.026-.587.08-.8h4.8c.052.213.08.48.08.8 0 .307-.028.573-.08.8h.8c.052.213.08.48.08.8 0 .307-.028.573-.08.8h-1.6a3.521 3.521 0 0 1-.08-.8c0-.32.026-.587.08-.8h-3.2c.052.213.08.48.08.8 0 .307-.028.573-.08.8.052.213.08.48.08.8 0 .307-.028.573-.08.8h4c.052.213.08.48.08.8 0 .307-.028.573-.08.8h.8Zm4.007-4.8a3.521 3.521 0 0 1-.08-.8c0-.32.026-.587.08-.8h1.6c.053.213.08.48.08.8 0 .307-.027.573-.08.8h-1.6Zm3.2 8c.053.213.08.48.08.8 0 .307-.027.573-.08.8h-4.8a3.521 3.521 0 0 1-.08-.8c0-.32.026-.587.08-.8h1.6a3.521 3.521 0 0 1-.08-.8c0-.32.026-.587.08-.8a3.521 3.521 0 0 1-.08-.8c0-.32.026-.587.08-.8a3.521 3.521 0 0 1-.08-.8c0-.32.026-.587.08-.8h-1.2a3.521 3.521 0 0 1-.08-.8c0-.32.026-.587.08-.8h2.8c.053.213.08.48.08.8 0 .307-.027.573-.08.8.053.213.08.48.08.8 0 .307-.027.573-.08.8.053.213.08.48.08.8 0 .307-.027.573-.08.8.053.213.08.48.08.8 0 .307-.027.573-.08.8h1.6Zm8.808-4.8c.053.213.08.48.08.8 0 .307-.027.573-.08.8.053.213.08.48.08.8 0 .307-.027.573-.08.8.053.213.08.48.08.8 0 .307-.027.573-.08.8.053.213.08.48.08.8 0 .307-.027.573-.08.8h-.8c.053.213.08.48.08.8 0 .307-.027.573-.08.8h-.8c.053.213.08.48.08.8 0 .307-.027.573-.08.8h-3.2a3.527 3.527 0 0 1-.08-.8c0-.32.026-.587.08-.8h2.4a3.527 3.527 0 0 1-.08-.8c0-.32.026-.587.08-.8h.8a3.527 3.527 0 0 1-.08-.8c0-.32.026-.587.08-.8h-.8a3.527 3.527 0 0 1-.08-.8c0-.32.026-.587.08-.8h.8a3.527 3.527 0 0 1-.08-.8c0-.32.026-.587.08-.8a3.527 3.527 0 0 1-.08-.8c0-.32.026-.587.08-.8h-2.6c.053.213.08.48.08.8 0 .307-.027.573-.08.8h-.6c.053.213.08.48.08.8 0 .307-.027.573-.08.8h.6c.053.213.08.48.08.8 0 .307-.027.573-.08.8h1.8c.053.213.08.48.08.8 0 .307-.027.573-.08.8h-2.4a3.527 3.527 0 0 1-.08-.8c0-.32.026-.587.08-.8h-1a3.527 3.527 0 0 1-.08-.8c0-.32.026-.587.08-.8h-.6a3.527 3.527 0 0 1-.08-.8c0-.32.026-.587.08-.8h.6a3.527 3.527 0 0 1-.08-.8c0-.32.026-.587.08-.8h1a3.527 3.527 0 0 1-.08-.8c0-.32.026-.587.08-.8h4.8c.053.213.08.48.08.8 0 .307-.027.573-.08.8Zm3.087-.8c0 .307-.026.573-.08.8h.8c.054.213.08.48.08.8 0 .307-.026.573-.08.8h-.6c.054.213.08.48.08.8 0 .307-.026.573-.08.8.054.213.08.48.08.8 0 .307-.026.573-.08.8.054.213.08.48.08.8 0 .307-.026.573-.08.8h-1.6a3.527 3.527 0 0 1-.08-.8c0-.32.027-.587.08-.8a3.527 3.527 0 0 1-.08-.8c0-.32.027-.587.08-.8a3.527 3.527 0 0 1-.08-.8c0-.32.027-.587.08-.8a3.527 3.527 0 0 1-.08-.8c0-.32.027-.587.08-.8a3.527 3.527 0 0 1-.08-.8c0-.32.027-.587.08-.8h1.4c.054.213.08.48.08.8Zm4.92 2.4c.054.213.08.48.08.8 0 .307-.026.573-.08.8.054.213.08.48.08.8 0 .307-.026.573-.08.8.054.213.08.48.08.8 0 .307-.026.573-.08.8h-1.6a3.527 3.527 0 0 1-.08-.8c0-.32.027-.587.08-.8a3.527 3.527 0 0 1-.08-.8c0-.32.027-.587.08-.8a3.527 3.527 0 0 1-.08-.8c0-.32.027-.587.08-.8a3.527 3.527 0 0 1-.08-.8c0-.32.027-.587.08-.8h-2.6a3.527 3.527 0 0 1-.08-.8c0-.32.027-.587.08-.8h3.2c.054.213.08.48.08.8 0 .307-.026.573-.08.8h1c.054.213.08.48.08.8 0 .307-.026.573-.08.8Zm12.016-4.8a3.544 3.544 0 0 1-.08-.8c0-.32.027-.587.08-.8h1.6c.053.213.08.48.08.8 0 .307-.027.573-.08.8h-1.6Zm3.2 8c.053.213.08.48.08.8 0 .307-.027.573-.08.8h-4.8a3.544 3.544 0 0 1-.08-.8c0-.32.027-.587.08-.8h1.6a3.544 3.544 0 0 1-.08-.8c0-.32.027-.587.08-.8a3.544 3.544 0 0 1-.08-.8c0-.32.027-.587.08-.8a3.544 3.544 0 0 1-.08-.8c0-.32.027-.587.08-.8h-1.2a3.544 3.544 0 0 1-.08-.8c0-.32.027-.587.08-.8h2.8c.053.213.08.48.08.8 0 .307-.027.573-.08.8.053.213.08.48.08.8 0 .307-.027.573-.08.8.053.213.08.48.08.8 0 .307-.027.573-.08.8.053.213.08.48.08.8 0 .307-.027.573-.08.8h1.6Zm3.888-5.6c0 .307-.027.573-.08.8h.8c.053.213.08.48.08.8 0 .307-.027.573-.08.8h-.6c.053.213.08.48.08.8 0 .307-.027.573-.08.8.053.213.08.48.08.8 0 .307-.027.573-.08.8.053.213.08.48.08.8 0 .307-.027.573-.08.8h-1.6a3.544 3.544 0 0 1-.08-.8c0-.32.027-.587.08-.8a3.544 3.544 0 0 1-.08-.8c0-.32.027-.587.08-.8a3.544 3.544 0 0 1-.08-.8c0-.32.027-.587.08-.8a3.544 3.544 0 0 1-.08-.8c0-.32.027-.587.08-.8a3.544 3.544 0 0 1-.08-.8c0-.32.027-.587.08-.8h1.4c.053.213.08.48.08.8Zm4.92 2.4c.053.213.08.48.08.8 0 .307-.027.573-.08.8.053.213.08.48.08.8 0 .307-.027.573-.08.8.053.213.08.48.08.8 0 .307-.027.573-.08.8h-1.6a3.544 3.544 0 0 1-.08-.8c0-.32.027-.587.08-.8a3.544 3.544 0 0 1-.08-.8c0-.32.027-.587.08-.8a3.544 3.544 0 0 1-.08-.8c0-.32.027-.587.08-.8a3.544 3.544 0 0 1-.08-.8c0-.32.027-.587.08-.8h-2.6a3.544 3.544 0 0 1-.08-.8c0-.32.027-.587.08-.8h3.2c.053.213.08.48.08.8 0 .307-.027.573-.08.8h1c.053.213.08.48.08.8 0 .307-.027.573-.08.8Z"/>
    <path fill="#000" d="M16.695 1h141.578v7.617H16.695zm0 59.732h141.578v7.617H16.695zM4 16.234h7.617v36.881H4zm166.968 0h-7.617v36.881h7.617z"/>
    <path fill="#E0E0E0" d="m44.026 35.218-2.972 3.21a.537.537 0 0 1-.718.072.604.604 0 0 1-.208-.276.658.658 0 0 1-.03-.354.627.627 0 0 1 .157-.313l2.002-2.163h-6.559a.546.546 0 0 1-.4-.179.637.637 0 0 1-.166-.432c0-.163.06-.318.166-.433a.545.545 0 0 1 .4-.179h6.56l-2.003-2.163a.64.64 0 0 1-.168-.433.64.64 0 0 1 .164-.434.548.548 0 0 1 .401-.182c.15 0 .295.064.402.178l2.972 3.21a.645.645 0 0 1 .166.436c0 .163-.06.32-.166.435Zm3.559-7.772h-3.962a.545.545 0 0 0-.4.179.637.637 0 0 0-.166.432c0 .162.06.318.165.432.106.115.25.18.4.18h3.963v12.228h-3.962a.546.546 0 0 0-.4.179.637.637 0 0 0-.166.432c0 .162.06.318.165.432.106.115.25.18.4.18h3.963c.3 0 .588-.13.8-.359a1.27 1.27 0 0 0 .332-.864V28.669c0-.325-.12-.636-.332-.865-.212-.23-.5-.358-.8-.358Z"/>
  </g>
  <defs>
    <filter id="a" width="174.968" height="75.348" x="0" y="0" color-interpolation-filters="sRGB" filterUnits="userSpaceOnUse">
      <feFlood flood-opacity="0" result="BackgroundImageFix"/>
      <feColorMatrix in="SourceAlpha" result="hardAlpha" values="0 0 0 0 0 0 0 0 0 0 0 0 0 0 0 0 0 0 127 0"/>
      <feOffset dy="3"/>
      <feGaussianBlur stdDeviation="2"/>
      <feComposite in2="hardAlpha" operator="out"/>
      <feColorMatrix values="0 0 0 0 0.779167 0 0 0 0 0.762934 0 0 0 0 0.762934 0 0 0 0.3 0"/>
      <feBlend in2="BackgroundImageFix" result="effect1_dropShadow_1353_38527"/>
      <feBlend in="SourceGraphic" in2="effect1_dropShadow_1353_38527" result="shape"/>
    </filter>
  </defs>
</svg>
