<svg xmlns="http://www.w3.org/2000/svg" width="175" height="76" fill="none" viewBox="0 0 175 76">
  <g filter="url(#a)">
    <rect width="166.968" height="67.348" x="4" y="1" fill="#000" rx="25.389" shape-rendering="crispEdges"/>
    <path fill="#000" d="M11.617 3.539h5.078v7.617h-5.078z"/>
    <path fill="#000" d="M9.078 6.078h5.078v7.617H9.078zM6.539 8.617h2.539v7.617H6.539z"/>
    <path fill="#000" d="M4 13.695h7.617v2.539H4zM163.351 3.539h-5.078v7.617h5.078z"/>
    <path fill="#000" d="M165.89 6.078h-5.078v7.617h5.078z"/>
    <path fill="#000" d="M168.429 8.617h-5.078v7.617h5.078z"/>
    <path fill="#000" d="M170.968 13.695h-5.078v2.539h5.078zM11.617 58.193h5.078v7.617h-5.078z"/>
    <path fill="#000" d="M9.078 55.654h5.078v7.617H9.078zm-2.539 5.078h2.539v-7.617H6.539z"/>
    <path fill="#000" d="M4 55.654h7.617v-2.539H4zm159.351 2.539h-5.078v7.617h5.078z"/>
    <path fill="#000" d="M165.89 55.654h-5.078v7.617h5.078zm2.539 5.078h-2.539v-7.617h2.539z"/>
    <path fill="#000" d="M170.968 55.654h-7.617v-2.539h7.617z"/>
    <path fill="#E0E0E0" d="M74.4 36.2c.052.213.08.48.08.8 0 .307-.028.573-.08.8.052.213.08.48.08.8 0 .307-.028.573-.08.8h-.8c.052.213.08.48.08.8 0 .307-.028.573-.08.8h-4.8a3.521 3.521 0 0 1-.08-.8c0-.32.026-.587.08-.8H68a3.521 3.521 0 0 1-.08-.8c0-.32.026-.587.08-.8h1.6c.052.213.08.48.08.8 0 .307-.028.573-.08.8h3.2a3.521 3.521 0 0 1-.08-.8c0-.32.026-.587.08-.8a3.521 3.521 0 0 1-.08-.8c0-.32.026-.587.08-.8h-4a3.521 3.521 0 0 1-.08-.8c0-.32.026-.587.08-.8H68a3.521 3.521 0 0 1-.08-.8c0-.32.026-.587.08-.8a3.521 3.521 0 0 1-.08-.8c0-.32.026-.587.08-.8h.8a3.521 3.521 0 0 1-.08-.8c0-.32.026-.587.08-.8h4.8c.052.213.08.48.08.8 0 .307-.028.573-.08.8h.8c.052.213.08.48.08.8 0 .307-.028.573-.08.8h-1.6a3.521 3.521 0 0 1-.08-.8c0-.32.026-.587.08-.8h-3.2c.052.213.08.48.08.8 0 .307-.028.573-.08.8.052.213.08.48.08.8 0 .307-.028.573-.08.8h4c.052.213.08.48.08.8 0 .307-.028.573-.08.8h.8Zm4.007-4.8a3.521 3.521 0 0 1-.08-.8c0-.32.026-.587.08-.8h1.6c.053.213.08.48.08.8 0 .307-.027.573-.08.8h-1.6Zm3.2 8c.053.213.08.48.08.8 0 .307-.027.573-.08.8h-4.8a3.521 3.521 0 0 1-.08-.8c0-.32.026-.587.08-.8h1.6a3.521 3.521 0 0 1-.08-.8c0-.32.026-.587.08-.8a3.521 3.521 0 0 1-.08-.8c0-.32.026-.587.08-.8a3.521 3.521 0 0 1-.08-.8c0-.32.026-.587.08-.8h-1.2a3.521 3.521 0 0 1-.08-.8c0-.32.026-.587.08-.8h2.8c.053.213.08.48.08.8 0 .307-.027.573-.08.8.053.213.08.48.08.8 0 .307-.027.573-.08.8.053.213.08.48.08.8 0 .307-.027.573-.08.8.053.213.08.48.08.8 0 .307-.027.573-.08.8h1.6Zm8.808-4.8c.053.213.08.48.08.8 0 .307-.027.573-.08.8.053.213.08.48.08.8 0 .307-.027.573-.08.8.053.213.08.48.08.8 0 .307-.027.573-.08.8.053.213.08.48.08.8 0 .307-.027.573-.08.8h-.8c.053.213.08.48.08.8 0 .307-.027.573-.08.8h-.8c.053.213.08.48.08.8 0 .307-.027.573-.08.8h-3.2a3.527 3.527 0 0 1-.08-.8c0-.32.026-.587.08-.8h2.4a3.527 3.527 0 0 1-.08-.8c0-.32.026-.587.08-.8h.8a3.527 3.527 0 0 1-.08-.8c0-.32.026-.587.08-.8h-.8a3.527 3.527 0 0 1-.08-.8c0-.32.026-.587.08-.8h.8a3.527 3.527 0 0 1-.08-.8c0-.32.026-.587.08-.8a3.527 3.527 0 0 1-.08-.8c0-.32.026-.587.08-.8h-2.6c.053.213.08.48.08.8 0 .307-.027.573-.08.8h-.6c.053.213.08.48.08.8 0 .307-.027.573-.08.8h.6c.053.213.08.48.08.8 0 .307-.027.573-.08.8h1.8c.053.213.08.48.08.8 0 .307-.027.573-.08.8h-2.4a3.527 3.527 0 0 1-.08-.8c0-.32.026-.587.08-.8h-1a3.527 3.527 0 0 1-.08-.8c0-.32.026-.587.08-.8h-.6a3.527 3.527 0 0 1-.08-.8c0-.32.026-.587.08-.8h.6a3.527 3.527 0 0 1-.08-.8c0-.32.026-.587.08-.8h1a3.527 3.527 0 0 1-.08-.8c0-.32.026-.587.08-.8h4.8c.053.213.08.48.08.8 0 .307-.027.573-.08.8Zm3.087-.8c0 .307-.026.573-.08.8h.8c.054.213.08.48.08.8 0 .307-.026.573-.08.8h-.6c.054.213.08.48.08.8 0 .307-.026.573-.08.8.054.213.08.48.08.8 0 .307-.026.573-.08.8.054.213.08.48.08.8 0 .307-.026.573-.08.8h-1.6a3.527 3.527 0 0 1-.08-.8c0-.32.027-.587.08-.8a3.527 3.527 0 0 1-.08-.8c0-.32.027-.587.08-.8a3.527 3.527 0 0 1-.08-.8c0-.32.027-.587.08-.8a3.527 3.527 0 0 1-.08-.8c0-.32.027-.587.08-.8a3.527 3.527 0 0 1-.08-.8c0-.32.027-.587.08-.8h1.4c.054.213.08.48.08.8Zm4.92 2.4c.054.213.08.48.08.8 0 .307-.026.573-.08.8.054.213.08.48.08.8 0 .307-.026.573-.08.8.054.213.08.48.08.8 0 .307-.026.573-.08.8h-1.6a3.527 3.527 0 0 1-.08-.8c0-.32.027-.587.08-.8a3.527 3.527 0 0 1-.08-.8c0-.32.027-.587.08-.8a3.527 3.527 0 0 1-.08-.8c0-.32.027-.587.08-.8a3.527 3.527 0 0 1-.08-.8c0-.32.027-.587.08-.8h-2.6a3.527 3.527 0 0 1-.08-.8c0-.32.027-.587.08-.8h3.2c.054.213.08.48.08.8 0 .307-.026.573-.08.8h1c.054.213.08.48.08.8 0 .307-.026.573-.08.8Zm11.896 2.4c0 .307-.027.573-.08.8h2c.053.213.08.48.08.8 0 .307-.027.573-.08.8h-3.2a3.544 3.544 0 0 1-.08-.8c0-.32.027-.587.08-.8h-1a3.544 3.544 0 0 1-.08-.8c0-.32.027-.587.08-.8a3.544 3.544 0 0 1-.08-.8c0-.32.027-.587.08-.8a3.544 3.544 0 0 1-.08-.8c0-.32.027-.587.08-.8a3.544 3.544 0 0 1-.08-.8c0-.32.027-.587.08-.8h1.6c.053.213.08.48.08.8 0 .307-.027.573-.08.8.053.213.08.48.08.8 0 .307-.027.573-.08.8.053.213.08.48.08.8 0 .307-.027.573-.08.8h.6c.053.213.08.48.08.8Zm4.12-4c.053.213.08.48.08.8 0 .307-.027.573-.08.8.053.213.08.48.08.8 0 .307-.027.573-.08.8.053.213.08.48.08.8 0 .307-.027.573-.08.8.053.213.08.48.08.8 0 .307-.027.573-.08.8h-1.6a3.544 3.544 0 0 1-.08-.8c0-.32.027-.587.08-.8h-.6a3.544 3.544 0 0 1-.08-.8c0-.32.027-.587.08-.8h.6a3.544 3.544 0 0 1-.08-.8c0-.32.027-.587.08-.8a3.544 3.544 0 0 1-.08-.8c0-.32.027-.587.08-.8a3.544 3.544 0 0 1-.08-.8c0-.32.027-.587.08-.8h1.6c.053.213.08.48.08.8 0 .307-.027.573-.08.8Zm8.088 2.4c0 .307-.027.573-.08.8h-.8c.053.213.08.48.08.8 0 .307-.027.573-.08.8h-.8c.053.213.08.48.08.8 0 .307-.027.573-.08.8h-3.2c.053.213.08.48.08.8 0 .307-.027.573-.08.8.053.213.08.48.08.8 0 .307-.027.573-.08.8h-1.6a3.544 3.544 0 0 1-.08-.8c0-.32.027-.587.08-.8a3.544 3.544 0 0 1-.08-.8c0-.32.027-.587.08-.8a3.544 3.544 0 0 1-.08-.8c0-.32.027-.587.08-.8a3.544 3.544 0 0 1-.08-.8c0-.32.027-.587.08-.8a3.544 3.544 0 0 1-.08-.8c0-.32.027-.587.08-.8a3.544 3.544 0 0 1-.08-.8c0-.32.027-.587.08-.8a3.544 3.544 0 0 1-.08-.8c0-.32.027-.587.08-.8h1.6c.053.213.08.48.08.8 0 .307-.027.573-.08.8h.8c.053.213.08.48.08.8 0 .307-.027.573-.08.8h-.8c.053.213.08.48.08.8 0 .307-.027.573-.08.8.053.213.08.48.08.8 0 .307-.027.573-.08.8h2.4a3.544 3.544 0 0 1-.08-.8c0-.32.027-.587.08-.8h.8a3.544 3.544 0 0 1-.08-.8c0-.32.027-.587.08-.8h-.8a3.544 3.544 0 0 1-.08-.8c0-.32.027-.587.08-.8h-1.6a3.544 3.544 0 0 1-.08-.8c0-.32.027-.587.08-.8h2.4c.053.213.08.48.08.8 0 .307-.027.573-.08.8h.8c.053.213.08.48.08.8 0 .307-.027.573-.08.8h.8c.053.213.08.48.08.8Z"/>
    <path fill="#000" d="M16.695 1h141.578v7.617H16.695zm0 59.732h141.578v7.617H16.695zM4 16.234h7.617v36.881H4zm166.968 0h-7.617v36.881h7.617z"/>
    <path fill="#E0E0E0" d="m41.827 38.415 1.329-.414 8.002-8.747a.388.388 0 0 0 .098-.262.388.388 0 0 0-.1-.26l-.48-.523a.334.334 0 0 0-.108-.08.312.312 0 0 0-.369.077l-7.98 8.725-.393 1.483v.001Zm9.798-11.243.48.524c.66.723.666 1.89.011 2.605l-8.246 9.015-2.84.884a.636.636 0 0 1-.517-.067.728.728 0 0 1-.321-.441.803.803 0 0 1-.002-.413l.827-3.13 8.224-8.991a1.67 1.67 0 0 1 .547-.396 1.564 1.564 0 0 1 1.293.006c.204.094.39.231.544.403Zm-8.694.94c.375 0 .678.332.678.74a.787.787 0 0 1-.197.523.684.684 0 0 1-.22.161.638.638 0 0 1-.26.058H40.22c-.748 0-1.355.663-1.355 1.481v8.89c0 .82.607 1.483 1.355 1.483h8.133c.749 0 1.356-.664 1.356-1.482v-2.964c0-.409.304-.74.678-.74.375 0 .678.331.678.741v2.963c0 1.637-1.214 2.964-2.712 2.964H40.22c-1.497 0-2.71-1.327-2.71-2.964v-8.891c0-1.636 1.213-2.963 2.71-2.963h2.711Z"/>
  </g>
  <defs>
    <filter id="a" width="174.968" height="75.348" x="0" y="0" color-interpolation-filters="sRGB" filterUnits="userSpaceOnUse">
      <feFlood flood-opacity="0" result="BackgroundImageFix"/>
      <feColorMatrix in="SourceAlpha" result="hardAlpha" values="0 0 0 0 0 0 0 0 0 0 0 0 0 0 0 0 0 0 127 0"/>
      <feOffset dy="3"/>
      <feGaussianBlur stdDeviation="2"/>
      <feComposite in2="hardAlpha" operator="out"/>
      <feColorMatrix values="0 0 0 0 0.780392 0 0 0 0 0.764706 0 0 0 0 0.764706 0 0 0 0.3 0"/>
      <feBlend in2="BackgroundImageFix" result="effect1_dropShadow_1353_38526"/>
      <feBlend in="SourceGraphic" in2="effect1_dropShadow_1353_38526" result="shape"/>
    </filter>
  </defs>
</svg>
