<svg xmlns="http://www.w3.org/2000/svg" width="40" height="40" fill="none" viewBox="0 0 40 40">
  <path fill="#4C4C4C" d="m38.631 9.448-8.669-8.253c-1.673-1.593-4.715-1.593-6.388 0l-10.798 10.28-11.407 10.86c-1.825 1.737-1.825 4.488 0 6.081l5.78 5.503c.303.29.608.434 1.064.434H18.25c.456 0 .76-.145 1.065-.434l19.315-18.39c1.825-1.592 1.825-4.344 0-6.081ZM17.643 31.457h-8.67L3.65 26.389c-.608-.579-.608-1.448 0-2.027l10.342-9.846 10.799 10.28-7.148 6.661Zm18.403 5.647H2.586c-.913 0-1.521.58-1.521 1.448 0 .869.608 1.448 1.52 1.448h33.46c.913 0 1.522-.58 1.522-1.448 0-.869-.608-1.448-1.521-1.448Z"/>
</svg>
