<svg xmlns="http://www.w3.org/2000/svg" width="21" height="17" fill="none" viewBox="0 0 21 17">
  <mask id="a" fill="#fff">
    <path d="M13.14 0c-.51 0-1.02.2-1.41.59L.59 11.73c-.78.77-.78 2.04 0 2.83L3.03 17h7.66l8.72-8.73c.79-.77.79-2.04 0-2.83L14.56.59C14.17.2 13.65 0 13.14 0ZM15 15l-2 2h7v-2"/>
  </mask>
  <path fill="#fff" d="M13.14 0c-.51 0-1.02.2-1.41.59L.59 11.73c-.78.77-.78 2.04 0 2.83L3.03 17h7.66l8.72-8.73c.79-.77.79-2.04 0-2.83L14.56.59C14.17.2 13.65 0 13.14 0ZM15 15l-2 2h7v-2"/>
  <path fill="#000" d="m11.73.59-.707-.707.707.707ZM.59 11.73l.703.712.004-.005-.707-.707Zm0 2.83-.712.703.005.004.707-.707ZM3.03 17l-.707.707.293.293h.414v-1Zm7.66 0v1h.415l.293-.293L10.69 17Zm8.72-8.73-.698-.716-.01.01.708.706Zm0-2.83.707-.707-.707.707ZM14.56.59l-.707.707.707-.707ZM13 17l-.707-.707L10.586 18H13v-1Zm7 0v1h1v-1h-1ZM13.14-1c-.772 0-1.537.303-2.117.883l1.414 1.414c.2-.2.455-.297.703-.297v-2Zm-2.117.883-11.14 11.14 1.414 1.414 11.14-11.14-1.414-1.414ZM-.113 11.018c-1.181 1.167-1.168 3.07-.009 4.245l1.424-1.406a1.004 1.004 0 0 1-.01-1.415l-1.405-1.424Zm-.004 4.25 2.44 2.44 1.414-1.415-2.44-2.44-1.414 1.414ZM3.03 18h7.66v-2H3.03v2Zm8.367-.293 8.72-8.73-1.415-1.414-8.72 8.73 1.416 1.414Zm8.711-8.72c1.198-1.168 1.185-3.079.01-4.254l-1.415 1.414a.986.986 0 0 1 .009 1.407l1.396 1.432Zm.01-4.254-4.85-4.85-1.415 1.414 4.85 4.85 1.414-1.414Zm-4.85-4.85A3.016 3.016 0 0 0 13.14-1v2c.253 0 .516.1.713.297l1.414-1.414Zm-.975 14.41-2 2 1.414 1.414 2-2-1.414-1.414ZM13 18h7v-2h-7v2Zm8-1v-2h-2v2h2Z" mask="url(#a)"/>
</svg>
