<svg xmlns="http://www.w3.org/2000/svg" width="24" height="24" fill="none" viewBox="0 0 24 24">
  <mask id="a" fill="#fff">
    <path d="M21.334 16.235s-2.667 3.064-2.667 4.942c0 .748.281 1.466.781 1.996s1.179.827 1.886.827c.707 0 1.385-.297 1.885-.827S24 21.925 24 21.177c0-1.878-2.666-4.942-2.666-4.942ZM2.95 14.118l6.385-6.763 6.386 6.763m2.36-1.497L6.162 0l-1.88 1.99 3.174 3.36L.59 12.622c-.787.79-.787 2.16 0 2.993l7.332 7.765c.387.41.907.621 1.413.621.507 0 1.027-.212 1.413-.621l7.333-7.765c.786-.833.786-2.202 0-2.993Z"/>
  </mask>
  <path fill="white" d="M21.334 16.235s-2.667 3.064-2.667 4.942c0 .748.281 1.466.781 1.996s1.179.827 1.886.827c.707 0 1.385-.297 1.885-.827S24 21.925 24 21.177c0-1.878-2.666-4.942-2.666-4.942ZM2.95 14.118l6.385-6.763 6.386 6.763m2.36-1.497L6.162 0l-1.88 1.99 3.174 3.36L.59 12.622c-.787.79-.787 2.16 0 2.993l7.332 7.765c.387.41.907.621 1.413.621.507 0 1.027-.212 1.413-.621l7.333-7.765c.786-.833.786-2.202 0-2.993Z"/>
  <path fill="#000" d="m21.334 16.235.754-.656-.754-.867-.755.867.755.656ZM9.335 7.355l.727-.686-.727-.77-.727.77.727.686Zm8.746 5.266-.727.687.009.01.009.008.709-.705ZM6.162 0l.728-.687-.728-.77-.727.77.727.687Zm-1.88 1.99-.726-.686-.649.687.649.686.727-.686Zm3.174 3.36.727.687.648-.686-.648-.687-.727.687ZM.59 12.622l.709.705.009-.009.009-.01-.727-.686Zm0 2.993-.727.687.727-.687Zm7.332 7.765.727-.687-.727.687Zm13.412-7.144-.755-.656v.001c-.002 0-.002.002-.003.003l-.007.008a3.36 3.36 0 0 0-.118.14 20.642 20.642 0 0 0-1.283 1.717c-.35.525-.715 1.133-.995 1.751-.272.601-.506 1.298-.506 1.977h2c0-.259.1-.649.328-1.15.22-.485.521-.995.838-1.47a18.644 18.644 0 0 1 1.255-1.664l-.754-.657Zm-3.667 4.942a3.91 3.91 0 0 0 1.054 2.683l1.454-1.374a1.91 1.91 0 0 1-.508-1.31h-2Zm1.054 2.683A3.593 3.593 0 0 0 21.334 25v-2c-.423 0-.841-.177-1.159-.514l-1.454 1.374ZM21.334 25c.991 0 1.93-.418 2.612-1.14l-1.454-1.374a1.593 1.593 0 0 1-1.158.514v2Zm2.612-1.14A3.91 3.91 0 0 0 25 21.177h-2c0 .501-.189.971-.508 1.31l1.454 1.373ZM25 21.177c0-.68-.233-1.377-.506-1.978a12.734 12.734 0 0 0-.995-1.752 20.642 20.642 0 0 0-1.374-1.826l-.026-.03a.68.68 0 0 1-.008-.008l-.002-.003v-.001l-.755.656-.755.657.005.005a2.807 2.807 0 0 1 .096.114 18.644 18.644 0 0 1 1.154 1.545c.317.475.619.985.839 1.47.227.501.327.891.327 1.15h2ZM3.677 14.803l6.385-6.762-1.454-1.373-6.385 6.762 1.454 1.373Zm4.931-6.762 6.386 6.762 1.454-1.373-6.386-6.762-1.454 1.373Zm10.2 3.893L6.89-.687 5.435.687l11.919 12.62 1.454-1.372ZM5.435-.687l-1.88 1.991L5.01 2.677 6.89.687 5.435-.687Zm-1.88 3.364 3.174 3.36 1.454-1.373-3.173-3.36-1.454 1.373ZM6.73 4.664l-6.866 7.27 1.454 1.374 6.866-7.27L6.73 4.664Zm-6.85 7.252c-1.184 1.19-1.159 3.177-.018 4.385l1.454-1.373c-.432-.458-.407-1.21-.018-1.602l-1.418-1.41ZM-.137 16.3l7.332 7.764 1.454-1.373-7.332-7.764L-.137 16.3Zm7.332 7.764c.576.61 1.359.935 2.14.935v-2a.956.956 0 0 1-.686-.308l-1.454 1.373Zm2.14.935c.782 0 1.565-.325 2.14-.935l-1.454-1.373a.956.956 0 0 1-.686.308v2Zm2.14-.935 7.333-7.764-1.454-1.373-7.333 7.764 1.455 1.373Zm7.333-7.764c1.14-1.208 1.166-3.195-.018-4.385l-1.418 1.41c.389.391.414 1.144-.018 1.601l1.454 1.374Z" mask="url(#a)"/>
</svg>
