<svg xmlns="http://www.w3.org/2000/svg" width="40" height="40" fill="none" viewBox="0 0 40 40">
  <rect width="39" height="39" x=".5" y=".5" fill="white" stroke="#4B4B4B" rx="9.5"/>
  <path fill="#4B4B4B" d="M31.25 9H8.75A3.75 3.75 0 0 0 5 12.75v15c-.002.423.074.843.225 1.238.296.84.88 1.55 1.65 2.001a3.8 3.8 0 0 0 1.875.511h22.5a3.787 3.787 0 0 0 3.15-1.711c.388-.61.596-1.316.6-2.039v-15A3.75 3.75 0 0 0 31.25 9ZM20.469 29.002H8.75a1.102 1.102 0 0 1-.389-.075l6.787-9.263 5.564 5.56 1.763 1.762L24.477 29h-4.008Zm12.033-1.252a1.256 1.256 0 0 1-1.252 1.252h-3.225l-3.75-3.779 3.197-3.159 5.053 5.625-.023.061Zm0-3.811-4.065-4.528a1.275 1.275 0 0 0-.885-.413 1.187 1.187 0 0 0-.915.366l-4.134 4.097-6.614-6.6a1.333 1.333 0 0 0-.989-.361 1.294 1.294 0 0 0-.914.51l-6.488 8.865V12.75a1.256 1.256 0 0 1 1.252-1.252h22.5a1.256 1.256 0 0 1 1.252 1.252v11.189Z"/>
  <path fill="#4B4B4B" d="M22.501 20.25a2.498 2.498 0 1 0 0-4.997 2.498 2.498 0 0 0 0 4.997Z"/>
</svg>
