<svg xmlns="http://www.w3.org/2000/svg" width="40" height="40" fill="none" viewBox="0 0 40 40">
  <path fill="white" fill-rule="evenodd" d="M20 0C8.956 0 0 8.956 0 20s8.956 20 20 20a3.329 3.329 0 0 0 3.333-3.333c0-.867-.333-1.645-.866-2.245a3.338 3.338 0 0 1-.845-2.2 3.329 3.329 0 0 1 3.334-3.333h3.933C35.022 28.889 40 23.91 40 17.778 40 7.956 31.044 0 20 0ZM7.778 20a3.329 3.329 0 0 1-3.334-3.333 3.329 3.329 0 0 1 3.334-3.334 3.329 3.329 0 0 1 3.333 3.334A3.329 3.329 0 0 1 7.778 20Zm6.666-8.889a3.329 3.329 0 0 1-3.333-3.333 3.329 3.329 0 0 1 3.333-3.334 3.329 3.329 0 0 1 3.334 3.334 3.329 3.329 0 0 1-3.334 3.333Zm11.112 0a3.329 3.329 0 0 1-3.334-3.333 3.329 3.329 0 0 1 3.334-3.334 3.329 3.329 0 0 1 3.333 3.334 3.329 3.329 0 0 1-3.333 3.333ZM32.222 20a3.329 3.329 0 0 1-3.333-3.333 3.329 3.329 0 0 1 3.333-3.334 3.329 3.329 0 0 1 3.334 3.334A3.329 3.329 0 0 1 32.222 20Z" clip-rule="evenodd"/>
</svg>
