<svg xmlns="http://www.w3.org/2000/svg" width="30" height="30" fill="none" viewBox="0 0 30 30">
  <g clip-path="url(#a)">
    <path fill="#FFF" d="M17.537 24.697c.276.477.903.646 1.362.365l2.866-1.655c.472-.256.64-.884.365-1.362l-1.292-2.25-4.593 2.65M12.258 4.949l-3.622-.97-.97 3.621 7.83 13.549 4.593-2.652-7.83-13.548Z"/>
    <path stroke="#000" d="M17.537 24.697c.276.477.903.646 1.362.365l2.866-1.655c.472-.256.64-.884.365-1.362l-1.292-2.25-4.593 2.65M12.258 4.949l-3.622-.97-.97 3.621 7.83 13.549 4.593-2.652-7.83-13.548Z"/>
  </g>
  <defs>
    <clipPath id="a">
      <path fill="#fff" d="M0 0h24v24H0z" transform="rotate(105 12.35 14.651)"/>
    </clipPath>
  </defs>
</svg>
