<svg xmlns="http://www.w3.org/2000/svg" width="24" height="25" fill="none" viewBox="0 0 24 25">
  <path fill="#fff" stroke="#000" d="M20.381.623a3.12 3.12 0 0 0-2.206.913L16.21 3.5l4.412 4.413 1.965-1.965L20.38.623Zm0 0c.827 0 1.62.328 2.206.912M20.38.623l2.206.912m0 0Zm-6.266 10.68L7.083 21.45l-5.152 2.084-1.343-1.343L2.67 17.04l9.237-9.237.355-.355-.356-.353-1.358-1.35 1.863-1.863 7.83 7.83-1.864 1.863-1.349-1.358-.354-.356-.354.354ZM3.945 17.767l-.068.068-.038.089-1.28 2.982-.494 1.15 1.15-.493 2.983-1.28.089-.038.068-.068 8.97-8.983.354-.354-.354-.353-1.69-1.69-.353-.354-.354.353-8.983 8.971Z"/>
</svg>
