<svg xmlns="http://www.w3.org/2000/svg" width="40" height="40" fill="none" viewBox="0 0 40 40">
  <path fill="#4C4C4C" fill-rule="evenodd" d="M28.292 2.009a6.858 6.858 0 1 1 9.7 9.699l-3.213 3.212 1.42 1.42a1.792 1.792 0 0 1-2.533 2.534l-1.42-1.42-20.973 20.972A5.374 5.374 0 0 1 7.473 40H1.791A1.791 1.791 0 0 1 0 38.21v-5.682c0-1.425.566-2.792 1.574-3.8L22.547 7.754l-1.42-1.42A1.791 1.791 0 0 1 23.66 3.8l1.42 1.42 3.212-3.211Zm-3.212 8.279L4.108 31.26a1.791 1.791 0 0 0-.525 1.267v3.89h3.89c.475 0 .93-.189 1.267-.525L29.712 14.92l-4.632-4.632Zm7.166 2.098-4.632-4.632 3.212-3.212a3.276 3.276 0 0 1 4.632 4.633l-3.212 3.211Z" clip-rule="evenodd"/>
</svg>
