<svg xmlns="http://www.w3.org/2000/svg" width="40" height="40" fill="none" viewBox="0 0 40 40">
  <path fill="white" d="M3.337 36.664A3.34 3.34 0 0 0 6.673 40h26.67a3.34 3.34 0 0 0 3.336-3.336V15H3.337v21.664ZM28.34 20h3.337v15H28.34V20Zm-10 0h3.337v15H18.34V20ZM8.339 20h3.336v15H8.338V20ZM38.343 6.664H28.341V3.336A3.34 3.34 0 0 0 25.005 0H15.003a3.34 3.34 0 0 0-3.337 3.336v3.336H1.664A1.656 1.656 0 0 0 0 8.336V10a1.66 1.66 0 0 0 1.664 1.664h36.672A1.66 1.66 0 0 0 40 10V8.336a1.656 1.656 0 0 0-1.657-1.672Zm-13.338 0H15.003V3.336h10.002v3.328Z"/>
</svg>
