<svg xmlns="http://www.w3.org/2000/svg" width="22" height="18" fill="none" viewBox="0 0 22 18">
  <path fill="white" stroke="#000" d="m10.578 2.968.422.663.422-.663C12.38 1.463 14.07.5 16 .5c3.024 0 5.5 2.476 5.5 5.5 0 1.35-.621 2.746-1.622 4.11-.997 1.36-2.337 2.642-3.695 3.753a39.386 39.386 0 0 1-3.733 2.684 38.47 38.47 0 0 1-1.449.879 38.813 38.813 0 0 1-1.45-.885 39.921 39.921 0 0 1-3.734-2.696C4.46 12.73 3.12 11.447 2.122 10.089 1.12 8.726.5 7.336.5 6 .5 2.976 2.976.5 6 .5c1.93 0 3.62.963 4.578 2.468Z"/>
</svg>
